<?xml version="1.0" encoding="utf-8"?>
<!-- Generator: Adobe Illustrator 24.3.0, SVG Export Plug-In . SVG Version: 6.00 Build 0)  -->
<svg version="1.1" id="Layer_1" xmlns="http://www.w3.org/2000/svg" xmlns:xlink="http://www.w3.org/1999/xlink" x="0px" y="0px"
	 viewBox="0 0 614 135.1" style="enable-background:new 0 0 614 135.1;" xml:space="preserve">
<style type="text/css">
	.st0{fill:#373938;}
	.st1{fill:url(#SVGID_1_);}
	.st2{fill:url(#SVGID_2_);}
	.st3{fill:url(#SVGID_3_);}
	.st4{fill:url(#SVGID_4_);}
	.st5{fill:url(#SVGID_5_);}
	.st6{fill:url(#SVGID_6_);}
	.st7{fill:url(#SVGID_7_);}
	.st8{fill:url(#SVGID_8_);}
	.st9{fill:url(#SVGID_9_);}
	.st10{fill:url(#SVGID_10_);}
	.st11{fill:url(#SVGID_11_);}
	.st12{fill:url(#SVGID_12_);}
	.st13{fill:url(#SVGID_13_);}
	.st14{fill:url(#SVGID_14_);}
	.st15{fill:url(#SVGID_15_);}
	.st16{fill:url(#SVGID_16_);}
	.st17{fill:url(#SVGID_17_);}
	.st18{fill:url(#SVGID_18_);}
	.st19{fill:url(#SVGID_19_);}
	.st20{fill:url(#SVGID_20_);}
	.st21{fill:url(#SVGID_21_);}
	.st22{fill:url(#SVGID_22_);}
	.st23{fill:url(#SVGID_23_);}
	.st24{fill:url(#SVGID_24_);}
	.st25{fill:url(#SVGID_25_);}
	.st26{fill:url(#SVGID_26_);}
	.st27{fill:url(#SVGID_27_);}
	.st28{fill:url(#SVGID_28_);}
	.st29{fill:#256BA2;}
</style>
<g>
	<g>
		<g>
			<path class="st0" d="M39.1,86.9L30,90.7c2.7,4,6.1,7.4,10.1,10.1l6-6C43.3,92.6,41,89.9,39.1,86.9z"/>
			<path class="st0" d="M75.2,41.1c2.4,0.8,4.6,1.8,6.7,3.1l0.8-1.9c-2.3-1.8-4.8-3.4-7.4-4.6V41.1z"/>
			<path class="st0" d="M49.5,97.2l-5.7,5.7c3.8,1.9,7.9,3.2,12.3,3.7l2.4-5.7C55.2,100.1,52.2,98.8,49.5,97.2z"/>
			<path class="st0" d="M34.5,72.6H23.9c0.3,5.2,1.7,10.1,4,14.5l9.3-3.9C35.7,80,34.8,76.4,34.5,72.6z"/>
			<path class="st0" d="M65.5,39.5c1.9,0,3.8,0.2,5.7,0.5v-3.9c-3.4-1.1-7-1.7-10.7-1.7l2.2,5.3C63.5,39.6,64.5,39.5,65.5,39.5z"/>
			<path class="st0" d="M46.1,46.3l-6-6c-4,2.7-7.5,6.1-10.1,10.1l9.1,3.8C41,51.2,43.3,48.6,46.1,46.3z"/>
			<path class="st0" d="M37.2,57.9L27.9,54c-2.3,4.4-3.7,9.3-4,14.5h10.6C34.8,64.7,35.7,61.2,37.2,57.9z"/>
			<path class="st0" d="M85.3,94.5l0.6,1.4c1.6-1.7,3.1-3.5,4.3-5.4L89.7,90C88.4,91.6,86.9,93.1,85.3,94.5z"/>
			<path class="st0" d="M58.4,40.3l-2.4-5.7c-4.4,0.5-8.5,1.8-12.3,3.7l5.7,5.7C52.2,42.3,55.2,41.1,58.4,40.3z"/>
			<path class="st0" d="M89.7,51.2l0.5-0.5c-1.3-1.9-2.7-3.7-4.4-5.4l-0.6,1.4C86.9,48,88.4,49.5,89.7,51.2z"/>
			<path class="st0" d="M75.2,100.1v3.4c2.7-1.2,5.2-2.8,7.4-4.6l-0.8-1.9C79.8,98.2,77.6,99.3,75.2,100.1z"/>
			<path class="st0" d="M65.5,101.6c-1,0-2-0.1-2.9-0.1l-2.2,5.3c3.7,0,7.3-0.6,10.7-1.7v-3.9C69.3,101.4,67.4,101.6,65.5,101.6z"/>
			<path class="st0" d="M94.5,59.5L94.5,59.5c-0.6-1.8-1.3-3.6-2.1-5.3l-0.3,0.3C93,56.1,93.8,57.8,94.5,59.5z"/>
			<path class="st0" d="M92.1,86.6l0.3,0.3c0.9-1.7,1.6-3.4,2.1-5.2l0,0C93.8,83.3,93,85,92.1,86.6z"/>
		</g>
		<g>
			<linearGradient id="SVGID_1_" gradientUnits="userSpaceOnUse" x1="98.3107" y1="21.0075" x2="98.3107" y2="119.4749">
				<stop  offset="6.283069e-03" style="stop-color:#26A9E0"/>
				<stop  offset="0.5" style="stop-color:#256BA2"/>
				<stop  offset="1" style="stop-color:#2E378F"/>
			</linearGradient>
			<path class="st1" d="M96.8,92.9l12.5,5.2c-3.7,5.5-8.4,10.1-13.8,13.8l-8.2-8.2C91.1,100.6,94.3,97,96.8,92.9z"/>
			<linearGradient id="SVGID_2_" gradientUnits="userSpaceOnUse" x1="42.4225" y1="21.0075" x2="42.4225" y2="119.4749">
				<stop  offset="6.283069e-03" style="stop-color:#26A9E0"/>
				<stop  offset="0.5" style="stop-color:#256BA2"/>
				<stop  offset="1" style="stop-color:#2E378F"/>
			</linearGradient>
			<path class="st2" d="M47.5,30.3c-3.2,1.1-6.3,2.5-9.1,4.3L37.3,32c3.1-2.5,6.5-4.6,10.2-6.3V30.3z"/>
			<linearGradient id="SVGID_3_" gradientUnits="userSpaceOnUse" x1="80.4442" y1="21.0075" x2="80.4442" y2="119.4749">
				<stop  offset="6.283069e-03" style="stop-color:#26A9E0"/>
				<stop  offset="0.5" style="stop-color:#256BA2"/>
				<stop  offset="1" style="stop-color:#2E378F"/>
			</linearGradient>
			<path class="st3" d="M82.7,106.9l7.8,7.8c-5.2,2.6-10.8,4.3-16.8,5l-3.2-7.8C74.8,110.8,78.9,109.1,82.7,106.9z"/>
			<linearGradient id="SVGID_4_" gradientUnits="userSpaceOnUse" x1="108.5138" y1="21.0075" x2="108.5138" y2="119.4749">
				<stop  offset="6.283069e-03" style="stop-color:#26A9E0"/>
				<stop  offset="0.5" style="stop-color:#256BA2"/>
				<stop  offset="1" style="stop-color:#2E378F"/>
			</linearGradient>
			<path class="st4" d="M103.1,73.4h14.5c-0.4,7.1-2.3,13.8-5.4,19.8l-12.7-5.3C101.5,83.4,102.7,78.5,103.1,73.4z"/>
			<linearGradient id="SVGID_5_" gradientUnits="userSpaceOnUse" x1="60.4116" y1="21.0075" x2="60.4116" y2="119.4749">
				<stop  offset="6.283069e-03" style="stop-color:#26A9E0"/>
				<stop  offset="0.5" style="stop-color:#256BA2"/>
				<stop  offset="1" style="stop-color:#2E378F"/>
			</linearGradient>
			<path class="st5" d="M60.8,28.1c-2.6,0-5.2,0.3-7.7,0.7v-5.3c4.6-1.5,9.6-2.3,14.7-2.4l-3,7.2C63.5,28.2,62.1,28.1,60.8,28.1z"/>
			<linearGradient id="SVGID_6_" gradientUnits="userSpaceOnUse" x1="98.3134" y1="21.0075" x2="98.3134" y2="119.4749">
				<stop  offset="6.283069e-03" style="stop-color:#26A9E0"/>
				<stop  offset="0.5" style="stop-color:#256BA2"/>
				<stop  offset="1" style="stop-color:#2E378F"/>
			</linearGradient>
			<path class="st6" d="M87.3,37.5l8.2-8.2c5.5,3.6,10.2,8.3,13.9,13.8l-12.5,5.2C94.3,44.2,91.1,40.5,87.3,37.5z"/>
			<linearGradient id="SVGID_7_" gradientUnits="userSpaceOnUse" x1="108.5138" y1="21.0075" x2="108.5138" y2="119.4749">
				<stop  offset="6.283069e-03" style="stop-color:#26A9E0"/>
				<stop  offset="0.5" style="stop-color:#256BA2"/>
				<stop  offset="1" style="stop-color:#2E378F"/>
			</linearGradient>
			<path class="st7" d="M99.5,53.2l12.7-5.3c3.1,6,5,12.7,5.4,19.8h-14.5C102.7,62.6,101.5,57.7,99.5,53.2z"/>
			<linearGradient id="SVGID_8_" gradientUnits="userSpaceOnUse" x1="30.381" y1="21.0075" x2="30.381" y2="119.4749">
				<stop  offset="6.283069e-03" style="stop-color:#26A9E0"/>
				<stop  offset="0.5" style="stop-color:#256BA2"/>
				<stop  offset="1" style="stop-color:#2E378F"/>
			</linearGradient>
			<path class="st8" d="M33.8,103.2l-0.8,2c-2.2-2.3-4.2-4.7-5.9-7.4l0.7-0.7C29.5,99.3,31.5,101.4,33.8,103.2z"/>
			<linearGradient id="SVGID_9_" gradientUnits="userSpaceOnUse" x1="80.4456" y1="21.0075" x2="80.4456" y2="119.4749">
				<stop  offset="6.283069e-03" style="stop-color:#26A9E0"/>
				<stop  offset="0.5" style="stop-color:#256BA2"/>
				<stop  offset="1" style="stop-color:#2E378F"/>
			</linearGradient>
			<path class="st9" d="M70.4,29.3l3.2-7.8c6,0.7,11.7,2.4,16.8,5l-7.8,7.8C78.9,32,74.8,30.3,70.4,29.3z"/>
			<linearGradient id="SVGID_10_" gradientUnits="userSpaceOnUse" x1="30.3787" y1="21.0075" x2="30.3787" y2="119.4749">
				<stop  offset="6.283069e-03" style="stop-color:#26A9E0"/>
				<stop  offset="0.5" style="stop-color:#256BA2"/>
				<stop  offset="1" style="stop-color:#2E378F"/>
			</linearGradient>
			<path class="st10" d="M27.7,44.1L27,43.3c1.7-2.6,3.7-5.1,5.9-7.4l0.8,2C31.5,39.8,29.5,41.8,27.7,44.1z"/>
			<linearGradient id="SVGID_11_" gradientUnits="userSpaceOnUse" x1="42.4216" y1="21.0075" x2="42.4216" y2="119.4749">
				<stop  offset="6.283069e-03" style="stop-color:#26A9E0"/>
				<stop  offset="0.5" style="stop-color:#256BA2"/>
				<stop  offset="1" style="stop-color:#2E378F"/>
			</linearGradient>
			<path class="st11" d="M47.5,110.9v4.6c-3.7-1.7-7.1-3.8-10.2-6.3l1.1-2.6C41.2,108.3,44.3,109.8,47.5,110.9z"/>
			<linearGradient id="SVGID_12_" gradientUnits="userSpaceOnUse" x1="60.4116" y1="21.0075" x2="60.4116" y2="119.4749">
				<stop  offset="6.283069e-03" style="stop-color:#26A9E0"/>
				<stop  offset="0.5" style="stop-color:#256BA2"/>
				<stop  offset="1" style="stop-color:#2E378F"/>
			</linearGradient>
			<path class="st12" d="M60.8,113c1.3,0,2.7-0.1,4-0.2l3,7.2c-5.1-0.1-10-0.9-14.7-2.4v-5.3C55.6,112.7,58.2,113,60.8,113z"/>
			<linearGradient id="SVGID_13_" gradientUnits="userSpaceOnUse" x1="22.8416" y1="21.0075" x2="22.8416" y2="119.4749">
				<stop  offset="6.283069e-03" style="stop-color:#26A9E0"/>
				<stop  offset="0.5" style="stop-color:#256BA2"/>
				<stop  offset="1" style="stop-color:#2E378F"/>
			</linearGradient>
			<path class="st13" d="M21.2,55.5L21.2,55.5c0.8-2.5,1.7-4.9,2.9-7.2l0.4,0.4C23.2,50.9,22.1,53.1,21.2,55.5z"/>
			<linearGradient id="SVGID_14_" gradientUnits="userSpaceOnUse" x1="22.8416" y1="21.0075" x2="22.8416" y2="119.4749">
				<stop  offset="6.283069e-03" style="stop-color:#26A9E0"/>
				<stop  offset="0.5" style="stop-color:#256BA2"/>
				<stop  offset="1" style="stop-color:#2E378F"/>
			</linearGradient>
			<path class="st14" d="M24.5,92.4l-0.4,0.4c-1.2-2.3-2.1-4.7-2.9-7.2l0,0C22.1,88,23.2,90.3,24.5,92.4z"/>
		</g>
		<g>
			<linearGradient id="SVGID_15_" gradientUnits="userSpaceOnUse" x1="81.382" y1="21.0075" x2="81.382" y2="119.4749">
				<stop  offset="6.283069e-03" style="stop-color:#26A9E0"/>
				<stop  offset="0.5" style="stop-color:#256BA2"/>
				<stop  offset="1" style="stop-color:#2E378F"/>
			</linearGradient>
			<path class="st15" d="M80.6,82l6.4,2.7c-1.9,2.8-4.3,5.2-7.1,7.1l-4.2-4.2C77.7,86,79.3,84.1,80.6,82z"/>
			<linearGradient id="SVGID_16_" gradientUnits="userSpaceOnUse" x1="52.689" y1="21.0075" x2="52.689" y2="119.4749">
				<stop  offset="6.283069e-03" style="stop-color:#26A9E0"/>
				<stop  offset="0.5" style="stop-color:#256BA2"/>
				<stop  offset="1" style="stop-color:#2E378F"/>
			</linearGradient>
			<path class="st16" d="M55.3,49.9c-1.7,0.5-3.2,1.3-4.7,2.2l-0.5-1.3c1.6-1.3,3.3-2.4,5.2-3.2V49.9z"/>
			<linearGradient id="SVGID_17_" gradientUnits="userSpaceOnUse" x1="72.2105" y1="21.0075" x2="72.2105" y2="119.4749">
				<stop  offset="6.283069e-03" style="stop-color:#26A9E0"/>
				<stop  offset="0.5" style="stop-color:#256BA2"/>
				<stop  offset="1" style="stop-color:#2E378F"/>
			</linearGradient>
			<path class="st17" d="M73.3,89.2l4,4c-2.6,1.3-5.6,2.2-8.6,2.6l-1.7-4C69.3,91.2,71.4,90.4,73.3,89.2z"/>
			<linearGradient id="SVGID_18_" gradientUnits="userSpaceOnUse" x1="86.6198" y1="21.0075" x2="86.6198" y2="119.4749">
				<stop  offset="6.283069e-03" style="stop-color:#26A9E0"/>
				<stop  offset="0.5" style="stop-color:#256BA2"/>
				<stop  offset="1" style="stop-color:#2E378F"/>
			</linearGradient>
			<path class="st18" d="M83.8,72h7.4c-0.2,3.7-1.2,7.1-2.8,10.2L82,79.5C83,77.2,83.6,74.7,83.8,72z"/>
			<linearGradient id="SVGID_19_" gradientUnits="userSpaceOnUse" x1="61.9263" y1="21.0075" x2="61.9263" y2="119.4749">
				<stop  offset="6.283069e-03" style="stop-color:#26A9E0"/>
				<stop  offset="0.5" style="stop-color:#256BA2"/>
				<stop  offset="1" style="stop-color:#2E378F"/>
			</linearGradient>
			<path class="st19" d="M62.1,48.8c-1.4,0-2.7,0.1-4,0.4v-2.7c2.4-0.8,4.9-1.2,7.5-1.2l-1.5,3.7C63.5,48.8,62.8,48.8,62.1,48.8z"/>
			<linearGradient id="SVGID_20_" gradientUnits="userSpaceOnUse" x1="81.3829" y1="21.0075" x2="81.3829" y2="119.4749">
				<stop  offset="6.283069e-03" style="stop-color:#26A9E0"/>
				<stop  offset="0.5" style="stop-color:#256BA2"/>
				<stop  offset="1" style="stop-color:#2E378F"/>
			</linearGradient>
			<path class="st20" d="M75.7,53.6l4.2-4.2c2.8,1.9,5.2,4.3,7.1,7.1l-6.4,2.7C79.3,57,77.7,55.1,75.7,53.6z"/>
			<linearGradient id="SVGID_21_" gradientUnits="userSpaceOnUse" x1="86.6198" y1="21.0075" x2="86.6198" y2="119.4749">
				<stop  offset="6.283069e-03" style="stop-color:#26A9E0"/>
				<stop  offset="0.5" style="stop-color:#256BA2"/>
				<stop  offset="1" style="stop-color:#2E378F"/>
			</linearGradient>
			<path class="st21" d="M82,61.7l6.5-2.7c1.6,3.1,2.6,6.5,2.8,10.2h-7.4C83.7,66.5,83,64,82,61.7z"/>
			<linearGradient id="SVGID_22_" gradientUnits="userSpaceOnUse" x1="46.5078" y1="21.0075" x2="46.5078" y2="119.4749">
				<stop  offset="6.283069e-03" style="stop-color:#26A9E0"/>
				<stop  offset="0.5" style="stop-color:#256BA2"/>
				<stop  offset="1" style="stop-color:#2E378F"/>
			</linearGradient>
			<path class="st22" d="M48.2,87.3l-0.4,1c-1.1-1.2-2.2-2.4-3-3.8l0.4-0.4C46.1,85.3,47.1,86.4,48.2,87.3z"/>
			<linearGradient id="SVGID_23_" gradientUnits="userSpaceOnUse" x1="72.2123" y1="21.0075" x2="72.2123" y2="119.4749">
				<stop  offset="6.283069e-03" style="stop-color:#26A9E0"/>
				<stop  offset="0.5" style="stop-color:#256BA2"/>
				<stop  offset="1" style="stop-color:#2E378F"/>
			</linearGradient>
			<path class="st23" d="M67.1,49.4l1.7-4c3.1,0.3,6,1.2,8.6,2.6l-4,4C71.4,50.8,69.3,49.9,67.1,49.4z"/>
			<linearGradient id="SVGID_24_" gradientUnits="userSpaceOnUse" x1="46.5074" y1="21.0075" x2="46.5074" y2="119.4749">
				<stop  offset="6.283069e-03" style="stop-color:#26A9E0"/>
				<stop  offset="0.5" style="stop-color:#256BA2"/>
				<stop  offset="1" style="stop-color:#2E378F"/>
			</linearGradient>
			<path class="st24" d="M45.2,57l-0.4-0.4c0.9-1.4,1.9-2.6,3-3.8l0.4,1C47.1,54.8,46.1,55.8,45.2,57z"/>
			<linearGradient id="SVGID_25_" gradientUnits="userSpaceOnUse" x1="52.6885" y1="21.0075" x2="52.6885" y2="119.4749">
				<stop  offset="6.283069e-03" style="stop-color:#26A9E0"/>
				<stop  offset="0.5" style="stop-color:#256BA2"/>
				<stop  offset="1" style="stop-color:#2E378F"/>
			</linearGradient>
			<path class="st25" d="M55.3,91.3v2.3c-1.9-0.9-3.6-2-5.2-3.2l0.5-1.3C52.1,90,53.6,90.7,55.3,91.3z"/>
			<linearGradient id="SVGID_26_" gradientUnits="userSpaceOnUse" x1="61.9263" y1="21.0075" x2="61.9263" y2="119.4749">
				<stop  offset="6.283069e-03" style="stop-color:#26A9E0"/>
				<stop  offset="0.5" style="stop-color:#256BA2"/>
				<stop  offset="1" style="stop-color:#2E378F"/>
			</linearGradient>
			<path class="st26" d="M62.1,92.3c0.7,0,1.4,0,2-0.1l1.5,3.7c-2.6,0-5.1-0.5-7.5-1.2V92C59.4,92.2,60.8,92.3,62.1,92.3z"/>
			<linearGradient id="SVGID_27_" gradientUnits="userSpaceOnUse" x1="42.6387" y1="21.0075" x2="42.6387" y2="119.4749">
				<stop  offset="6.283069e-03" style="stop-color:#26A9E0"/>
				<stop  offset="0.5" style="stop-color:#256BA2"/>
				<stop  offset="1" style="stop-color:#2E378F"/>
			</linearGradient>
			<path class="st27" d="M41.8,62.8L41.8,62.8c0.4-1.3,0.9-2.5,1.5-3.7l0.2,0.2C42.8,60.5,42.3,61.6,41.8,62.8z"/>
			<linearGradient id="SVGID_28_" gradientUnits="userSpaceOnUse" x1="42.6387" y1="21.0075" x2="42.6387" y2="119.4749">
				<stop  offset="6.283069e-03" style="stop-color:#26A9E0"/>
				<stop  offset="0.5" style="stop-color:#256BA2"/>
				<stop  offset="1" style="stop-color:#2E378F"/>
			</linearGradient>
			<path class="st28" d="M43.5,81.8L43.3,82c-0.6-1.2-1.1-2.4-1.5-3.7l0,0C42.3,79.5,42.8,80.7,43.5,81.8z"/>
		</g>
	</g>
	<g>
		<g>
			<path class="st0" d="M141.8,48.1h32.4v5.1h-13v42.7h-6.2V53.2h-13.1V48.1z"/>
			<path class="st0" d="M182.4,95.9h-6.2V58.3h6.2v6.1c2.1-4.2,6.2-6.8,12.1-6.8v6.4h-1.6c-6,0-10.5,2.7-10.5,11.4V95.9z"/>
			<path class="st0" d="M215.4,57.7c7,0,11.8,3.6,14,7.5v-6.9h6.3v37.6h-6.3v-7c-2.3,4-7.1,7.6-14.1,7.6c-10,0-17.8-7.9-17.8-19.6
				C197.5,65.3,205.3,57.7,215.4,57.7z M216.6,63.1c-6.9,0-12.7,5-12.7,13.9s5.8,14.1,12.7,14.1c6.9,0,12.8-5.1,12.8-14
				C229.4,68.3,223.5,63.1,216.6,63.1z"/>
			<path class="st0" d="M259.5,57.7c9.3,0,15.4,4.8,17.4,12.7h-6.7c-1.3-4.5-5.1-7.4-10.6-7.4c-6.9,0-11.9,4.9-11.9,14.1
				c0,9.3,5.1,14.2,11.9,14.2c5.6,0,9.3-2.7,10.6-7.4h6.7c-1.9,7.5-8,12.7-17.4,12.7c-10.7,0-18.3-7.5-18.3-19.5
				C241.2,65.3,248.8,57.7,259.5,57.7z"/>
			<path class="st0" d="M282.1,45.2h6.2V75l14.5-16.7h8.7l-17.7,18.7l17.8,18.9H303l-14.7-16.6v16.6h-6.2V45.2z"/>
			<path class="st0" d="M328.6,57.7c7,0,11.8,3.6,14,7.5v-6.9h6.3v37.6h-6.3v-7c-2.3,4-7.1,7.6-14.1,7.6c-10,0-17.8-7.9-17.8-19.6
				C310.7,65.3,318.5,57.7,328.6,57.7z M329.8,63.1c-6.9,0-12.7,5-12.7,13.9s5.8,14.1,12.7,14.1c6.9,0,12.8-5.1,12.8-14
				C342.6,68.3,336.7,63.1,329.8,63.1z"/>
			<path class="st0" d="M377.5,57.7c10.2,0,17.8,7.5,17.8,19.3c0,11.7-7.8,19.6-17.8,19.6c-6.9,0-11.7-3.4-14.1-7.5v6.9h-6.2V45.2
				h6.2v20.2C365.8,61.1,370.8,57.7,377.5,57.7z M376.2,63.1c-6.8,0-12.8,5.2-12.8,13.9c0,8.8,6,14,12.8,14
				c6.9,0,12.8-5.2,12.8-14.1S383.1,63.1,376.2,63.1z"/>
			<path class="st0" d="M400.2,45.2h6.2v50.8h-6.2V45.2z"/>
			<path class="st0" d="M431.2,96.5c-10.7,0-18.6-7.5-18.6-19.5c0-11.9,7.6-19.3,18.6-19.3c10.9,0,18,7.7,18,18
				c0,1.4-0.1,2.5-0.2,3.8h-30c0.5,7.6,5.8,11.8,12.2,11.8c5.6,0,9.2-2.9,10.6-6.9h6.7C446.6,91.2,440.5,96.5,431.2,96.5z
				 M419.1,74.4h23.7c0.1-7.3-5.4-11.4-11.9-11.4C424.8,63,419.8,67,419.1,74.4z"/>
		</g>
		<g>
			<path class="st29" d="M455.8,48.5h6.7l17.6,39.2l17.6-39.2h6.7v47.5h-6.2V60.5l-15.8,35.4h-4.4l-15.8-35.5v35.5h-6.2V48.5z"/>
			<path class="st29" d="M528.1,96.5c-10.7,0-18.6-7.5-18.6-19.5c0-11.9,7.6-19.3,18.6-19.3c10.9,0,18,7.7,18,18
				c0,1.4-0.1,2.5-0.2,3.8h-30c0.5,7.6,5.8,11.8,12.2,11.8c5.6,0,9.2-2.9,10.6-6.9h6.7C543.5,91.2,537.5,96.5,528.1,96.5z M516,74.4
				h23.7c0.1-7.3-5.4-11.4-11.9-11.4C521.8,63,516.7,67,516,74.4z"/>
			<path class="st29" d="M568.1,57.7c5.9,0,11.3,3,13.9,7.3V45.2h6.3v50.8h-6.3v-7.1c-2.3,4.2-7.1,7.7-14,7.7
				c-10.1,0-17.8-7.9-17.8-19.6C550.2,65.3,558,57.7,568.1,57.7z M569.3,63.1c-6.9,0-12.7,5-12.7,13.9s5.8,14.1,12.7,14.1
				c6.9,0,12.8-5.1,12.8-14C582.1,68.3,576.2,63.1,569.3,63.1z"/>
		</g>
	</g>
</g>
</svg>
